<svg xmlns="http://www.w3.org/2000/svg" version="1.1" viewBox="-5.0 -10.0 110.0 135.0">
 <path d="m93.75 50c0 24.125-19.625 43.75-43.75 43.75s-43.75-19.625-43.75-43.75 19.625-43.75 43.75-43.75c14.535 0 28.082 7.1914 36.246 19.242 0.96875 1.4297 0.59375 3.3711-0.83594 4.3398-1.4297 0.96875-3.3711 0.59766-4.3398-0.83594-7-10.328-18.613-16.496-31.07-16.496-20.676 0-37.5 16.82-37.5 37.5s16.824 37.5 37.5 37.5 37.5-16.82 37.5-37.5c0-4.0898-0.65234-8.1133-1.9453-11.949-0.54688-1.6367 0.33203-3.4102 1.9688-3.957 1.6367-0.53906 3.4062 0.33203 3.957 1.9688 1.5078 4.4805 2.2695 9.1719 2.2695 13.938zm-29.434-2.543c0.82031 0.58594 1.3086 1.5312 1.3086 2.543s-0.48828 1.957-1.3086 2.543l-21.875 15.625c-0.53906 0.38672-1.1758 0.58203-1.8164 0.58203-0.48828 0-0.98047-0.11328-1.4297-0.34375-1.0391-0.53906-1.6953-1.6094-1.6953-2.7812v-31.25c0-1.1719 0.65625-2.2422 1.6953-2.7812 1.0391-0.52734 2.2969-0.44531 3.2461 0.23828zm-7.1953 2.543-13.371-9.5508v19.105z"/>
<text x="0.0" y="117.5" font-size="5.0" font-weight="bold" font-family="Arbeit Regular, Helvetica, Arial-Unicode, Arial, Sans-serif" fill="#000000">Created by Docktor Icon Shop</text><text x="0.0" y="122.5" font-size="5.0" font-weight="bold" font-family="Arbeit Regular, Helvetica, Arial-Unicode, Arial, Sans-serif" fill="#000000">from Noun Project</text></svg>